/* XPM */
static char * 3D Floppy_xpm[] = {
"32 32 12 1",
" 	c None",
".	c #FF3366",
"+	c #FFFF66",
"@	c #FFCC66",
"#	c #AA0000",
"$	c #990000",
"%	c #FFFFFF",
"&	c #3333FF",
"*	c #C0C0C0",
"=	c #A0A0A4",
"-	c #000000",
";	c #CCCC00",
"                                ",
"                                ",
"                                ",
"                                ",
"                                ",
"                                ",
"                                ",
"                                ",
"             .  ++              ",
"            .@..++++            ",
"           .@@....++++          ",
"          .@@..#$#..++++        ",
"         .@@..%%#$#&..++++      ",
"        .@@..%%%%%&&&&..++++    ",
"       .@@..%%%%%%%%&&&&..++++  ",
"      .@@..%%%%%%%%%%%&&.*..++++",
"     .@@@@*..%%%%%%%%%%.*@@@.+++",
"    .@@@@@@**..%%%%%%%.*@@@..+++",
"   .@@@@@@@@@**..%%%%.*@@@...++ ",
"  .@@@@=--@@@@@**..%.*@@@...++  ",
" .@@@@=-**--@@@@@**.*@@@...++   ",
" .%%@=-**;;*--@@@@@*@@@...++    ",
" .==%.**;;;***--@@@@@@...++     ",
"  ..=.%%;;******-@@@@...++      ",
"    ..==%%*****-*@@@...++       ",
"      ..==%%**-*@@@...++        ",
"        ..==%.*@@@...++         ",
"          ..=.%%@...++          ",
"            ..==...++           ",
"              ....++            ",
"                .++             ",
"                                "};
