/* XPM */
static char * button_hidden_xpm[] = {
"21 20 65 1",
" 	c None",
".	c #4C4C4C",
"+	c #90A8C0",
"@	c #848484",
"#	c #CCCCCC",
"$	c #51676E",
"%	c #9B9BA3",
"&	c #D3D9EA",
"*	c #B0C0C0",
"=	c #405060",
"-	c #506880",
";	c #C0C8E0",
">	c #405070",
",	c #999999",
"'	c #C0D0E0",
")	c #A0B8D0",
"!	c #F0F0F0",
"~	c #AFAFAF",
"{	c #717171",
"]	c #D0D0F0",
"^	c #6C7285",
"/	c #54595D",
"(	c #BDBDBD",
"_	c #536475",
":	c #5A5F63",
"<	c #828290",
"[	c #C3C3C3",
"}	c #A0B0D0",
"|	c #607090",
"1	c #666666",
"2	c #B0B8C0",
"3	c #A0A8B0",
"4	c #CFCFDD",
"5	c #F0F0FF",
"6	c #8B8B8B",
"7	c #61707F",
"8	c #D0E0F0",
"9	c #707890",
"0	c #B6B6B6",
"a	c #7C7C7C",
"b	c #607080",
"c	c #E0E0F0",
"d	c #B0B8D0",
"e	c #555555",
"f	c #B0C0D0",
"g	c #C0C8F0",
"h	c #A4A4A4",
"i	c #506080",
"j	c #FFF8FF",
"k	c #A0ACB9",
"l	c #4F5560",
"m	c #D0D8E0",
"n	c #A8AFC4",
"o	c #868B90",
"p	c #405870",
"q	c #747C83",
"r	c #9CADB5",
"s	c #5A5A5A",
"t	c #666666",
"u	c #D0D8F0",
"v	c #A0A8C0",
"w	c #607890",
"x	c #6B6D73",
"y	c #E0E8F0",
"z	c #8088A0",
"                     ",
"                     ",
"                     ",
"   #    h,           ",
"   %(  #h,           ",
"   oo~~([~4          ",
"   k::@h[[[          ",
"   f_s:@h((          ",
"   d-#::@h0#         ",
"   di!^ssa%(         ",
"   )i!m4/sa,&        ",
"   }p *z$xs{,        ",
"   vp39ybn1ex0       ",
"   v>2p|=bbl.{[      ",
"   v>5;;u]]g<.a#     ",
"   vwdffdd)}vqe6[    ",
"   +;''4mmm88c%s@(   ",
"                     ",
"                     ",
"                     "};
