/* XPM */
static char * button_input_xpm[] = {
"21 20 61 1",
" 	c None",
".	c #304860",
"+	c #B0C0E0",
"@	c #A0A8B0",
"#	c #F0F0F0",
"$	c #607080",
"%	c #E0E0F0",
"&	c #8088A0",
"*	c #A0B8D0",
"=	c #D0D0E0",
"-	c #506070",
";	c #FFF8FF",
">	c #707890",
",	c #D0D0F0",
"'	c #C0C0F0",
")	c #90A0B0",
"!	c #A0B0D0",
"~	c #B0B8C0",
"{	c #E0D8FF",
"]	c #507090",
"^	c #A0B0C0",
"/	c #CCCCFF",
"(	c #405070",
"_	c #B0B8D0",
":	c #506080",
"<	c #C0C0E0",
"[	c #F0E8FF",
"}	c #B0C0D0",
"|	c #90A8C0",
"1	c #607090",
"2	c #606880",
"3	c #808890",
"4	c #B0B0C0",
"5	c #90A0C0",
"6	c #D0E0F0",
"7	c #C0C0FF",
"8	c #F0F0FF",
"9	c #C0D0E0",
"0	c #C0C8D0",
"a	c #E0E8FF",
"b	c #E0E8F0",
"c	c #405060",
"d	c #506880",
"e	c #A0A8C0",
"f	c #405870",
"g	c #FFFFFF",
"h	c #F0F8FF",
"i	c #607890",
"j	c #708090",
"k	c #84949C",
"l	c #E0E0FF",
"m	c #C0C8E0",
"n	c #607880",
"o	c #D0D8E0",
"p	c #D0D8FF",
"q	c #506870",
"r	c #D0D8F0",
"s	c #B0C0C0",
"t	c #A0A0B0",
"u	c #C0C8F0",
"v	c #C0C8FF",
"                     ",
"                     ",
"                     ",
"  ++}}}}__*!^^eee|   ",
"  +11]dd::ff((..k9   ",
"  }1ggggggggh88a}o   ",
"  }]gggggt)h88[j_o   ",
"  }dgggggj$88[lj_6   ",
"  _dgb@o84d8[aln*6   ",
"  _:#>3-04d$1<{$!6   ",
"  *:#o%d~e-e&>pd^%   ",
"  !f;s&q_t$l5:/-^%   ",
"  ^f@>b$_ki{21/feb   ",
"  ^(~f1c$$(1&'/feb   ",
"  e(8mmr,,u<//v7|b   ",
"  ei_}}__*!^^ee|5b   ",
"  |m99=ooo66%%bbbb   ",
"                     ",
"                     ",
"                     "};
