/* XPM */
static char * New_1_xpm[] = {
"24 24 10 1",
" 	c None",
".	c #A0936F",
"+	c #AA9C76",
"@	c #FFEBB2",
"#	c #BAAB81",
"$	c #ECDAA5",
"%	c #AB9C76",
"&	c #DDCB99",
"*	c #C4B388",
"=	c #AE9F78",
"                        ",
"                        ",
"                        ",
"                        ",
"      .++++++++++.      ",
"      +@@@@@@@@@@+      ",
"      +@@@@@@@@@@+      ",
"      +@@@@@@@@@@+      ",
"      +@@@@@@@@@@+      ",
"      +@@@@@@@@@@+      ",
"      +@@@@@@@@@@+      ",
"      +@@@@@@@@@@+      ",
"      +@@@@@@@@@@+      ",
"      +@@@@@@@@@@+      ",
"      +@@@@@@@@@@+      ",
"      +#$@@@@@@@@+      ",
"        %#&@@@@@@+      ",
"         *==&@@@@+      ",
"           &==*@@+      ",
"               %*+      ",
"                        ",
"                        ",
"                        ",
"                        "};
