/* XPM */
static char * zip_xpm[] = {
"16 16 8 1",
" 	c None",
".	c #D163D8",
"+	c #772392",
"@	c #741D90",
"#	c #DA7DDD",
"$	c #B614BD",
"%	c #720F8D",
"&	c #670682",
"  .+            ",
" ..@            ",
"#.$%            ",
"&&&&            ",
"                ",
"                ",
"                ",
"                ",
"                ",
"                ",
"                ",
"                ",
"            ...&",
"            $$& ",
"            $&  ",
"            &   "};
